<svg width="251" height="60" viewBox="0 0 251 60" fill="none" xmlns="http://www.w3.org/2000/svg">
<path fill-rule="evenodd" clip-rule="evenodd" d="M82.5126 9.2816V7.20316L76.767 9.33873H76.7561V11.4716H76.767L82.5126 13.6072V11.526L79.5664 10.3997L82.5126 9.27888V9.2816Z" fill="#F7DD43"/>
<path fill-rule="evenodd" clip-rule="evenodd" d="M115.792 13.5037V11.4253L118.736 10.3072L115.792 9.18905V7.1106L121.53 9.24618H121.543V11.3817H121.53L115.792 13.5064V13.5037ZM113.327 4.16977L109.954 15H111.956L115.33 4.16977H113.327Z" fill="#F7DD43"/>
<path fill-rule="evenodd" clip-rule="evenodd" d="M90.9544 6.91747C91.5257 7.54317 91.8249 8.3702 91.7896 9.21627V13.8302H89.7873V9.64066C89.8118 9.17274 89.6621 8.7157 89.3683 8.35116C89.0908 8.02742 88.6801 7.84787 88.2529 7.86691C86.9988 7.86691 86.3704 8.73746 86.3704 10.4758V13.8302H84.3681V6.25639H86.3704V6.93923C87.007 6.32168 87.8694 5.99251 88.7562 6.03059C89.5833 5.99523 90.3831 6.31896 90.9544 6.91747V6.91747Z" fill="#F7DD43"/>
<path fill-rule="evenodd" clip-rule="evenodd" d="M94.3413 3V13.8302H96.3436V3H94.3413Z" fill="#F7DD43"/>
<path fill-rule="evenodd" clip-rule="evenodd" d="M107.666 13.8302H105.996L104.358 9.36862L102.704 13.8302H101.034L98.2261 6.2428H100.367L101.945 10.7806L103.572 6.2428H105.136L106.763 10.7942L108.341 6.2428H110.482L107.672 13.8302H107.666Z" fill="#F7DD43"/>
<path d="M131.08 17.9981C129.153 17.9981 127.129 17.6331 125.543 16.754V1.24411C127.105 0.389878 129.128 2.85548e-05 131.08 2.85548e-05C133.031 2.85548e-05 135.007 0.365035 136.566 1.24411V7.19505H132.639V3.14558C132.176 2.95066 131.615 2.87804 131.055 2.87804C130.495 2.87804 129.981 2.95066 129.493 3.14558V14.8525C129.956 15.0475 130.493 15.1201 131.055 15.1201C131.617 15.1201 132.152 15.0475 132.639 14.8525V10.805H136.566V16.7559C135.03 17.6102 133.006 17.9752 131.08 18V17.9981Z" fill="#F7DD43"/>
<path d="M143.931 17.9981C141.858 17.9981 139.859 17.5585 138.273 16.6565V1.3167C139.834 0.439536 141.835 0 143.931 0C146.028 0 147.979 0.414693 149.54 1.3167V16.6565C148.004 17.5585 145.98 17.9732 143.931 17.9981ZM145.615 3.19524C145.152 3.00031 144.591 2.90285 143.908 2.90285C143.226 2.90285 142.689 3.00031 142.225 3.19524V14.7799C142.687 14.9997 143.249 15.0971 143.908 15.0971C144.568 15.0971 145.128 14.9997 145.615 14.7799V3.19524Z" fill="#F7DD43"/>
<path d="M156.393 11.4127H155.344V17.7783H151.369V0.219779H156.393C158.784 0.219779 160.588 0.707092 162.002 1.70656V9.92589C160.613 10.9024 158.782 11.4127 156.393 11.4127ZM158.052 3.24303C157.687 2.97548 157.198 2.85318 156.368 2.85318H155.294V8.77927H156.368C157.173 8.77927 157.66 8.65697 158.052 8.41427V3.24303Z" fill="#F7DD43"/>
<path d="M170.317 17.7783V11.4127H167.391V17.7783H163.441V1.29185C164.88 0.437625 166.904 0 168.855 0C170.806 0 172.805 0.439537 174.244 1.29185V17.7783H170.317ZM170.317 3.04809C169.902 2.85316 169.39 2.7557 168.853 2.7557C168.316 2.7557 167.804 2.85316 167.389 3.04809V8.63211H170.315V3.04809H170.317Z" fill="#F7DD43"/>
<path d="M48.7129 47.9248H53.0928C53.0049 49.3604 52.6094 50.6348 51.9062 51.748C51.2129 52.8613 50.2412 53.7305 48.9912 54.3555C47.751 54.9805 46.2568 55.293 44.5088 55.293C43.1416 55.293 41.916 55.0586 40.832 54.5898C39.748 54.1113 38.8203 53.4277 38.0488 52.5391C37.2871 51.6504 36.7061 50.5762 36.3057 49.3164C35.9053 48.0566 35.7051 46.6455 35.7051 45.083V43.6035C35.7051 42.041 35.9102 40.6299 36.3203 39.3701C36.7402 38.1006 37.3359 37.0215 38.1074 36.1328C38.8887 35.2441 39.8213 34.5605 40.9053 34.082C41.9893 33.6035 43.2002 33.3643 44.5381 33.3643C46.3154 33.3643 47.8145 33.6865 49.0352 34.3311C50.2656 34.9756 51.2178 35.8643 51.8916 36.9971C52.5752 38.1299 52.9854 39.4189 53.1221 40.8643H48.7275C48.6787 40.0049 48.5078 39.2773 48.2148 38.6816C47.9219 38.0762 47.4775 37.6221 46.8818 37.3193C46.2959 37.0068 45.5146 36.8506 44.5381 36.8506C43.8057 36.8506 43.166 36.9873 42.6191 37.2607C42.0723 37.5342 41.6133 37.9492 41.2422 38.5059C40.8711 39.0625 40.5928 39.7656 40.4072 40.6152C40.2314 41.4551 40.1436 42.4414 40.1436 43.5742V45.083C40.1436 46.1865 40.2266 47.1582 40.3926 47.998C40.5586 48.8281 40.8125 49.5312 41.1543 50.1074C41.5059 50.6738 41.9551 51.1035 42.502 51.3965C43.0586 51.6797 43.7275 51.8213 44.5088 51.8213C45.4268 51.8213 46.1836 51.6748 46.7793 51.3818C47.375 51.0889 47.8291 50.6543 48.1416 50.0781C48.4639 49.502 48.6543 48.7842 48.7129 47.9248ZM64.6504 37.3193L58.8496 55H54.1768L62.1016 33.6719H65.0752L64.6504 37.3193ZM69.4697 55L63.6543 37.3193L63.1855 33.6719H66.1885L74.1572 55H69.4697ZM69.2061 47.0605V50.5029H57.9414V47.0605H69.2061ZM89.8457 51.5723V55H79.1084V51.5723H89.8457ZM80.5293 33.6719V55H76.1348V33.6719H80.5293ZM106.677 51.5723V55H95.3242V51.5723H106.677ZM96.7598 33.6719V55H92.3652V33.6719H96.7598ZM105.197 42.3584V45.6982H95.3242V42.3584H105.197ZM106.662 33.6719V37.1143H95.3242V33.6719H106.662ZM126.599 33.6719V55H122.204L113.635 40.7031V55H109.24V33.6719H113.635L122.219 47.9834V33.6719H126.599ZM136.97 55H132.326L132.355 51.5723H136.97C138.122 51.5723 139.094 51.3135 139.885 50.7959C140.676 50.2686 141.271 49.502 141.672 48.4961C142.082 47.4902 142.287 46.2744 142.287 44.8486V43.8086C142.287 42.7148 142.17 41.7529 141.936 40.9229C141.711 40.0928 141.374 39.3945 140.925 38.8281C140.476 38.2617 139.924 37.8369 139.27 37.5537C138.615 37.2607 137.863 37.1143 137.014 37.1143H132.238V33.6719H137.014C138.439 33.6719 139.743 33.916 140.925 34.4043C142.116 34.8828 143.146 35.5713 144.016 36.4697C144.885 37.3682 145.554 38.4424 146.022 39.6924C146.501 40.9326 146.74 42.3145 146.74 43.8379V44.8486C146.74 46.3623 146.501 47.7441 146.022 48.9941C145.554 50.2441 144.885 51.3184 144.016 52.2168C143.156 53.1055 142.126 53.7939 140.925 54.2822C139.733 54.7607 138.415 55 136.97 55ZM134.816 33.6719V55H130.422V33.6719H134.816ZM158.283 37.3193L152.482 55H147.81L155.734 33.6719H158.708L158.283 37.3193ZM163.103 55L157.287 37.3193L156.818 33.6719H159.821L167.79 55H163.103ZM162.839 47.0605V50.5029H151.574V47.0605H162.839ZM155.808 32.4707L158.679 27.959H163.264L159.235 32.4707H155.808ZM169.768 33.6719H177.722C179.353 33.6719 180.754 33.916 181.926 34.4043C183.107 34.8926 184.016 35.6152 184.65 36.5723C185.285 37.5293 185.603 38.7061 185.603 40.1025C185.603 41.2451 185.407 42.2266 185.017 43.0469C184.636 43.8574 184.094 44.5361 183.391 45.083C182.697 45.6201 181.882 46.0498 180.944 46.3721L179.553 47.1045H172.639L172.609 43.6768H177.751C178.522 43.6768 179.162 43.54 179.67 43.2666C180.178 42.9932 180.559 42.6123 180.812 42.124C181.076 41.6357 181.208 41.0693 181.208 40.4248C181.208 39.7412 181.081 39.1504 180.827 38.6523C180.573 38.1543 180.188 37.7734 179.67 37.5098C179.152 37.2461 178.503 37.1143 177.722 37.1143H174.162V55H169.768V33.6719ZM181.691 55L176.828 45.4932L181.472 45.4639L186.394 54.7949V55H181.691ZM193.659 33.6719V55H189.279V33.6719H193.659ZM215.295 43.8379V44.8486C215.295 46.4697 215.075 47.9248 214.636 49.2139C214.196 50.5029 213.576 51.6016 212.775 52.5098C211.975 53.4082 211.018 54.0967 209.904 54.5752C208.801 55.0537 207.575 55.293 206.228 55.293C204.89 55.293 203.664 55.0537 202.551 54.5752C201.447 54.0967 200.49 53.4082 199.68 52.5098C198.869 51.6016 198.239 50.5029 197.79 49.2139C197.351 47.9248 197.131 46.4697 197.131 44.8486V43.8379C197.131 42.207 197.351 40.752 197.79 39.4727C198.229 38.1836 198.85 37.085 199.65 36.1768C200.461 35.2686 201.418 34.5752 202.521 34.0967C203.635 33.6182 204.86 33.3789 206.198 33.3789C207.546 33.3789 208.771 33.6182 209.875 34.0967C210.988 34.5752 211.945 35.2686 212.746 36.1768C213.557 37.085 214.182 38.1836 214.621 39.4727C215.07 40.752 215.295 42.207 215.295 43.8379ZM210.856 44.8486V43.8086C210.856 42.6758 210.754 41.6797 210.549 40.8203C210.344 39.9609 210.041 39.2383 209.641 38.6523C209.24 38.0664 208.752 37.627 208.176 37.334C207.6 37.0312 206.94 36.8799 206.198 36.8799C205.456 36.8799 204.797 37.0312 204.221 37.334C203.654 37.627 203.171 38.0664 202.771 38.6523C202.38 39.2383 202.082 39.9609 201.877 40.8203C201.672 41.6797 201.569 42.6758 201.569 43.8086V44.8486C201.569 45.9717 201.672 46.9678 201.877 47.8369C202.082 48.6963 202.385 49.4238 202.785 50.0195C203.186 50.6055 203.674 51.0498 204.25 51.3525C204.826 51.6553 205.485 51.8066 206.228 51.8066C206.97 51.8066 207.629 51.6553 208.205 51.3525C208.781 51.0498 209.265 50.6055 209.655 50.0195C210.046 49.4238 210.344 48.6963 210.549 47.8369C210.754 46.9678 210.856 45.9717 210.856 44.8486Z" fill="url(#paint0_linear_122_239)"/>
<defs>
<linearGradient id="paint0_linear_122_239" x1="125.5" y1="26" x2="125.5" y2="64" gradientUnits="userSpaceOnUse">
<stop stop-color="white"/>
<stop offset="1" stop-color="#D9D9D9" stop-opacity="0.8"/>
</linearGradient>
</defs>
</svg>
