<svg width="50" height="50" viewBox="0 0 50 50" fill="none" xmlns="http://www.w3.org/2000/svg">
<g clip-path="url(#clip0_105_865)">
<path d="M50 25C50 38.807 38.807 50 25 50C11.193 50 0 38.807 0 25C0 25.0059 25 0.00283203 25 0C38.807 0 50 11.193 50 25Z" fill="#0052B4"/>
<path d="M24.9998 0C24.9984 0 24.997 0.001 24.9956 0.001L24.9998 0Z" fill="#F0F0F0"/>
<path d="M24.9331 25H25C25 24.9773 25 24.9557 25 24.9331C24.9777 24.9555 24.9555 24.9777 24.9331 25Z" fill="#F0F0F0"/>
<path d="M25 13.0435C25 8.64453 25 5.76201 25 0H24.9958C11.1906 0.00224609 0 11.1941 0 24.9999H13.0435V17.655L20.3884 24.9999H24.9332C24.9556 24.9776 24.9778 24.9554 25.0001 24.933C25.0001 23.2487 25.0001 21.7459 25.0001 20.3885L17.6551 13.0435H25Z" fill="#F0F0F0"/>
<path d="M12.6479 3.26074C8.73779 5.48721 5.48721 8.73779 3.26074 12.6479V24.9999H9.78252V9.78262V9.78252H24.9999C24.9999 7.72559 24.9999 5.76602 24.9999 3.26074H12.6479Z" fill="#D80027"/>
<path d="M24.9999 21.9255L16.1178 13.0435H13.0435C13.0435 13.0434 13.0435 13.0435 13.0435 13.0435L24.9998 24.9998H24.9999C24.9999 24.9998 24.9999 22.8802 24.9999 21.9255Z" fill="#D80027"/>
<path d="M15.0774 29.3481L16.4495 32.2171L19.5479 31.501L18.1604 34.3625L20.652 36.3384L17.5497 37.0376L17.5584 40.2177L15.0774 38.2281L12.5966 40.2177L12.6053 37.0376L9.50293 36.3384L11.9946 34.3625L10.6069 31.501L13.7055 32.2171L15.0774 29.3481Z" fill="#F0F0F0"/>
<path d="M37.4298 34.7827L38.1158 36.2172L39.665 35.8591L38.9712 37.2898L40.2171 38.2778L38.6659 38.6274L38.6702 40.2175L37.4298 39.2227L36.1894 40.2175L36.1937 38.6274L34.6426 38.2778L35.8884 37.2898L35.1946 35.8591L36.7437 36.2172L37.4298 34.7827Z" fill="#F0F0F0"/>
<path d="M31.048 19.5654L31.734 21L33.2832 20.6418L32.5895 22.0726L33.8353 23.0605L32.2842 23.4102L32.2884 25.0002L31.048 24.0054L29.8076 25.0002L29.8118 23.4102L28.2607 23.0605L29.5065 22.0726L28.8128 20.6418L30.362 21L31.048 19.5654Z" fill="#F0F0F0"/>
<path d="M37.4298 10.8696L38.1158 12.3042L39.665 11.9461L38.9713 13.3769L40.217 14.3647L38.6659 14.7145L38.6702 16.3045L37.4298 15.3097L36.1894 16.3045L36.1937 14.7145L34.6426 14.3647L35.8883 13.3769L35.1946 11.9461L36.7437 12.3042L37.4298 10.8696Z" fill="#F0F0F0"/>
<path d="M43.0046 17.3916L43.6905 18.8262L45.2397 18.468L44.546 19.8987L45.7918 20.8867L44.2406 21.2364L44.2449 22.8264L43.0046 21.8316L41.7642 22.8264L41.7684 21.2364L40.2173 20.8867L41.4631 19.8987L40.7693 18.468L42.3185 18.8262L43.0046 17.3916Z" fill="#F0F0F0"/>
<path d="M39.0183 25L39.5578 26.6607H41.3041L39.8913 27.6872L40.4311 29.3479L39.0183 28.3215L37.6056 29.3479L38.1451 27.6872L36.7324 26.6607H38.4786L39.0183 25Z" fill="#F0F0F0"/>
</g>
<defs>
<clipPath id="clip0_105_865">
<rect width="50" height="50" fill="white"/>
</clipPath>
</defs>
</svg>
