<svg width="50" height="50" viewBox="0 0 50 50" fill="none" xmlns="http://www.w3.org/2000/svg">
<g clip-path="url(#clip0_105_958)">
<path d="M33.6955 1.55498C30.9872 0.550098 28.0579 0 24.9999 0C21.9419 0 19.0126 0.550098 16.3043 1.55498L14.1304 25L16.3043 48.445C19.0126 49.45 21.9419 50 24.9999 50C28.0579 50 30.9872 49.45 33.6955 48.445L35.8694 25L33.6955 1.55498Z" fill="#FFDA44"/>
<path d="M50.0002 25.0001C50.0002 14.2511 43.2158 5.0874 33.6958 1.55518V48.4453C43.2158 44.9128 50.0002 35.7493 50.0002 25.0001V25.0001Z" fill="#D80027"/>
<path d="M0 25.0001C0 35.7493 6.78437 44.9128 16.3044 48.4452V1.55518C6.78437 5.0874 0 14.2511 0 25.0001V25.0001Z" fill="black"/>
</g>
<defs>
<clipPath id="clip0_105_958">
<rect width="50" height="50" fill="white"/>
</clipPath>
</defs>
</svg>
