<svg width="50" height="50" viewBox="0 0 50 50" fill="none" xmlns="http://www.w3.org/2000/svg">
<g clip-path="url(#clip0_105_1308)">
<path d="M50 25.001C50 21.943 49.4499 19.0136 48.445 16.3054L25 15.2184L1.55498 16.3053C0.550098 19.0136 0 21.943 0 25.001C0 28.059 0.550098 30.9884 1.55498 33.6966L25 34.7836L48.445 33.6967C49.4499 30.9884 50 28.059 50 25.001Z" fill="#F0F0F0"/>
<path d="M25 50.001C35.7491 50.001 44.9127 43.2166 48.445 33.6966H1.55498C5.0873 43.2166 14.2509 50.001 25 50.001Z" fill="#0052B4"/>
<path d="M1.55498 16.3054H48.4451C44.9127 6.78535 35.7491 0.000976562 25 0.000976562C14.2509 0.000976562 5.0873 6.78535 1.55498 16.3054V16.3054Z" fill="#D80027"/>
<path d="M31.5218 17.3924H27.1739L27.8986 11.9575L30.7971 9.78357L33.6956 11.9575V16.3053L31.5218 17.3924Z" fill="#338AF3"/>
<path d="M18.4782 17.3924H22.8261L22.1014 11.9575L19.2028 9.78357L16.3044 11.9575V16.3053L18.4782 17.3924Z" fill="#338AF3"/>
<path d="M27.8986 17.3924H22.1014V11.9575L25 9.78357L27.8986 11.9575V17.3924Z" fill="#0052B4"/>
<path d="M16.3044 16.3055V28.2619C16.3044 31.1089 17.6796 33.6407 19.8007 35.2279L21.3225 34.8472L23.2428 36.779C23.8106 36.896 24.3982 36.9576 25.0001 36.9576C25.5987 36.9576 26.1834 36.8968 26.7482 36.781L28.9403 34.9558L30.1993 35.2244C32.3195 33.6373 33.6957 31.1081 33.6957 28.2619V16.3055H16.3044Z" fill="#F0F0F0"/>
<path d="M16.3044 16.3054H19.7826V19.7836H16.3044V16.3054Z" fill="#D80027"/>
<path d="M23.2608 16.3054H26.7391V19.7836H23.2608V16.3054Z" fill="#D80027"/>
<path d="M30.2174 16.3054H33.6956V19.7836H30.2174V16.3054Z" fill="#D80027"/>
<path d="M19.7826 19.7836H23.2608V23.2618H19.7826V19.7836Z" fill="#D80027"/>
<path d="M26.7392 19.7836H30.2174V23.2618H26.7392V19.7836Z" fill="#D80027"/>
<path d="M16.3044 23.2607H19.7826V26.739H16.3044V23.2607Z" fill="#D80027"/>
<path d="M19.7826 26.7391H23.2608V30.2173H19.7826V26.7391Z" fill="#D80027"/>
<path d="M23.2608 23.2607H26.7391V26.739H23.2608V23.2607Z" fill="#D80027"/>
<path d="M30.2174 23.2607H33.6956V26.739H30.2174V23.2607Z" fill="#D80027"/>
<path d="M26.7392 26.7391H30.2174V30.2173H26.7392V26.7391Z" fill="#D80027"/>
<path d="M23.2608 30.2173H26.7391V33.6955H23.2608V30.2173Z" fill="#D80027"/>
<path d="M19.7826 30.2176H16.5288C16.8272 31.5106 17.414 32.6937 18.2185 33.6958H19.7826V30.2176Z" fill="#D80027"/>
<path d="M30.2174 33.6959H31.7815C32.5861 32.6937 33.1727 31.5105 33.4711 30.2177H30.2174V33.6959Z" fill="#D80027"/>
<path d="M19.7826 33.6959V35.2135C20.7942 35.9748 21.9765 36.5206 23.2608 36.7825V33.6959H19.7826Z" fill="#D80027"/>
<path d="M26.7392 33.6959V36.7825C28.0236 36.5208 29.2058 35.9748 30.2174 35.2135V33.6959H26.7392Z" fill="#D80027"/>
</g>
<defs>
<clipPath id="clip0_105_1308">
<rect width="50" height="50" fill="white" transform="translate(0 0.000976562)"/>
</clipPath>
</defs>
</svg>
