<svg width="50" height="50" viewBox="0 0 50 50" fill="none" xmlns="http://www.w3.org/2000/svg">
<g clip-path="url(#clip0_105_1441)">
<path d="M25 50C38.8071 50 50 38.8071 50 25C50 11.1929 38.8071 0 25 0C11.1929 0 0 11.1929 0 25C0 38.8071 11.1929 50 25 50Z" fill="#F0F0F0"/>
<path d="M49.7884 21.7392H28.261H28.2609V0.211621C27.1935 0.0726563 26.1052 0 25 0C23.8948 0 22.8065 0.0726563 21.7392 0.211621V21.739V21.7391H0.211621C0.0726563 22.8065 0 23.8946 0 25C0 26.1054 0.0726563 27.1935 0.211621 28.2608H21.739H21.7391V49.7884C22.8065 49.9273 23.8948 50 25 50C26.1052 50 27.1935 49.9274 28.2608 49.7884V28.261V28.2609H49.7884C49.9273 27.1935 50 26.1054 50 25C50 23.8946 49.9273 22.8065 49.7884 21.7392V21.7392Z" fill="#D80027"/>
</g>
<defs>
<clipPath id="clip0_105_1441">
<rect width="50" height="50" fill="white"/>
</clipPath>
</defs>
</svg>