<svg width="50" height="50" viewBox="0 0 50 50" fill="none" xmlns="http://www.w3.org/2000/svg">
<g clip-path="url(#clip0_402_96)">
<path d="M0 25C0 28.058 0.550098 30.9873 1.55498 33.6956L25 34.7826L48.445 33.6957C49.45 30.9873 50 28.058 50 25C50 21.942 49.45 19.0127 48.445 16.3044L25 15.2174L1.55498 16.3043C0.550098 19.0127 0 21.942 0 25H0Z" fill="#FFDA44"/>
<path d="M25 0C14.2508 0 5.08726 6.78437 1.55493 16.3044H48.4451C44.9126 6.78437 35.7491 0 25 0V0Z" fill="#D80027"/>
<path d="M48.445 33.6956H1.55493C5.08726 43.2155 14.2508 50 25 50C35.7491 50 44.9126 43.2155 48.445 33.6956Z" fill="#496E2D"/>
<path d="M24.9998 16.3044L27.158 22.947H34.1431L28.4925 27.0527L30.6507 33.6956L24.9998 29.5901L19.3489 33.6956L21.5075 27.0527L15.8568 22.947H22.8416L24.9998 16.3044Z" fill="black"/>
</g>
<defs>
<clipPath id="clip0_402_96">
<rect width="50" height="50" fill="white"/>
</clipPath>
</defs>
</svg>
