<svg width="50" height="50" viewBox="0 0 50 50" fill="none" xmlns="http://www.w3.org/2000/svg">
<g clip-path="url(#clip0_105_1699)">
<path d="M25 50.001C38.8071 50.001 50 38.8081 50 25.001C50 11.1939 38.8071 0.000976562 25 0.000976562C11.1929 0.000976562 0 11.1939 0 25.001C0 38.8081 11.1929 50.001 25 50.001Z" fill="#F0F0F0"/>
<path d="M33.1198 18.4791H29.8489C29.876 18.8386 29.8913 19.2013 29.8913 19.566C29.8913 21.9844 29.2868 24.3284 28.233 25.997C27.9079 26.5116 27.3616 27.2384 26.6304 27.7286V18.479H23.3695V27.7286C22.6384 27.2384 22.092 26.5117 21.7669 25.997C20.713 24.3284 20.1086 21.9844 20.1086 19.566C20.1086 19.2013 20.124 18.8385 20.151 18.4791H16.8801C16.8591 18.8368 16.8477 19.1991 16.8477 19.566C16.8477 26.2707 20.4285 31.5226 24.9998 31.5226C29.5711 31.5226 33.152 26.2707 33.152 19.566C33.1521 19.1991 33.1407 18.8368 33.1198 18.4791V18.4791Z" fill="#D80027"/>
<path d="M10.3261 11.9575H13.5869V14.1314H16.8478V11.9575H20.1086V14.1314H23.3694V11.9575H26.6303V14.1314H29.8911V11.9575H33.152V14.1314H36.4128V11.9575H39.6736V14.1314H47.519C43.4756 5.76904 34.9114 0.000976562 25 0.000976562C15.0886 0.000976562 6.52442 5.76904 2.48067 14.1314H10.3261V11.9575Z" fill="#6DA544"/>
<path d="M39.6739 35.8706V38.0445H36.4131V35.8706H33.1522V38.0445H29.8914V35.8706H26.6306V38.0445H23.3697V35.8706H20.1089V38.0445H16.8481V35.8706H13.5869V38.0445H10.3261V35.8706H2.48067C6.52442 44.233 15.0885 50.0011 25 50.0011C34.9115 50.0011 43.4756 44.233 47.5193 35.8706H39.6739Z" fill="#D80027"/>
</g>
<defs>
<clipPath id="clip0_105_1699">
<rect width="50" height="50" fill="white" transform="translate(0 0.000976562)"/>
</clipPath>
</defs>
</svg>