<svg width="50" height="50" viewBox="0 0 50 50" fill="none" xmlns="http://www.w3.org/2000/svg">
<g clip-path="url(#clip0_105_2018)">
<path d="M25 50C38.8071 50 50 38.8071 50 25C50 11.1929 38.8071 0 25 0C11.1929 0 0 11.1929 0 25C0 38.8071 11.1929 50 25 50Z" fill="#D80027"/>
<path d="M39.774 20.5167H28.4875L24.9998 9.78271L21.5121 20.5167H10.2256L19.3565 27.1507L15.8688 37.885L24.9998 31.2509L34.1309 37.8851L30.6431 27.1508L39.774 20.5167ZM21.9121 26.3203L23.0915 22.6905H26.908L28.0875 26.3203V26.3204L24.9998 28.5637L21.9122 26.3204L21.9121 26.3203ZM26.2018 20.5167H23.7979L24.9998 16.8175L26.2018 20.5167ZM29.9366 24.9769L29.1938 22.6906H33.0833L29.9366 24.9769ZM20.8058 22.6906L20.0629 24.9769L16.9161 22.6906H20.8058ZM20.0038 32.1936L21.2058 28.4944L23.1506 29.9073L20.0038 32.1936ZM26.849 29.9074L28.7938 28.4945L29.9958 32.1937L26.849 29.9074Z" fill="#FFDA44"/>
</g>
<defs>
<clipPath id="clip0_105_2018">
<rect width="50" height="50" fill="white"/>
</clipPath>
</defs>
</svg>
