<svg width="50" height="50" viewBox="0 0 50 50" fill="none" xmlns="http://www.w3.org/2000/svg">
<g clip-path="url(#clip0_105_2262)">
<path d="M25 50C38.8071 50 50 38.8071 50 25C50 11.1929 38.8071 0 25 0C11.1929 0 0 11.1929 0 25C0 38.8071 11.1929 50 25 50Z" fill="#F0F0F0"/>
<path d="M49.9996 25C49.9996 11.193 38.8066 0 24.9996 0C20.109 0 15.5471 1.40576 11.6937 3.83311L17.1735 6.16133L9.78223 9.30176L17.1735 12.4421L9.78223 15.5823L17.1735 18.7225L9.78223 21.8622L17.1735 25.0018L9.78223 28.142L17.1735 31.282L9.78223 34.4218L17.1735 37.5618L9.78223 40.7021L17.1735 43.8418L11.6962 46.1688C15.549 48.5949 20.11 50 24.9996 50C38.8066 50 49.9996 38.807 49.9996 25Z" fill="#751A46"/>
</g>
<defs>
<clipPath id="clip0_105_2262">
<rect width="50" height="50" fill="white"/>
</clipPath>
</defs>
</svg>
