<svg width="50" height="50" viewBox="0 0 50 50" fill="none" xmlns="http://www.w3.org/2000/svg">
<g clip-path="url(#clip0_105_2505)">
<path d="M0 25C0 28.058 0.550098 30.9873 1.55498 33.6956L25 35.8696L48.445 33.6956C49.4499 30.9873 50 28.058 50 25C50 21.942 49.4499 19.0127 48.445 16.3044L25 14.1305L1.55498 16.3044C0.550098 19.0127 0 21.942 0 25H0Z" fill="#FFDA44"/>
<path d="M48.4447 16.3044C44.9124 6.78447 35.7488 0 24.9997 0C14.2506 0 5.08701 6.78447 1.55469 16.3044H48.4447Z" fill="#D80027"/>
<path d="M1.55469 33.6956C5.08701 43.2155 14.2506 49.9999 24.9997 49.9999C35.7488 49.9999 44.9124 43.2155 48.4447 33.6956H1.55469Z" fill="#D80027"/>
</g>
<defs>
<clipPath id="clip0_105_2505">
<rect width="50" height="50" fill="white"/>
</clipPath>
</defs>
</svg>
