<svg width="50" height="50" viewBox="0 0 50 50" fill="none" xmlns="http://www.w3.org/2000/svg">
<g clip-path="url(#clip0_105_2661)">
<path d="M25 49.999C38.8071 49.999 50 38.8061 50 24.999C50 11.1919 38.8071 -0.000976562 25 -0.000976562C11.1929 -0.000976562 0 11.1919 0 24.999C0 38.8061 11.1929 49.999 25 49.999Z" fill="#D80027"/>
<path d="M25 36.9556C31.6034 36.9556 36.9565 31.6024 36.9565 24.999C36.9565 18.3956 31.6034 13.0425 25 13.0425C18.3966 13.0425 13.0435 18.3956 13.0435 24.999C13.0435 31.6024 18.3966 36.9556 25 36.9556Z" fill="#F0F0F0"/>
<path d="M26.473 20.4272L28.5242 23.2539L31.8462 22.1768L29.7918 25.001L31.8427 27.8275L28.5218 26.7463L26.4675 29.5705L26.4696 26.0782L23.1488 24.997L26.4709 23.9198L26.473 20.4272Z" fill="#D80027"/>
<path d="M27.7174 32.0642C23.8155 32.0642 20.6522 28.9009 20.6522 24.9989C20.6522 21.097 23.8155 17.9337 27.7174 17.9337C28.934 17.9337 30.0789 18.2413 31.0783 18.7829C29.5104 17.2496 27.3664 16.3032 25 16.3032C20.1977 16.3032 16.3044 20.1964 16.3044 24.9988C16.3044 29.8013 20.1977 33.6944 25 33.6944C27.3664 33.6944 29.5105 32.748 31.0783 31.2147C30.0789 31.7565 28.934 32.0642 27.7174 32.0642Z" fill="#D80027"/>
</g>
<defs>
<clipPath id="clip0_105_2661">
<rect width="50" height="50" fill="white" transform="translate(0 -0.000976562)"/>
</clipPath>
</defs>
</svg>