<svg width="50" height="50" viewBox="0 0 50 50" fill="none" xmlns="http://www.w3.org/2000/svg">
<g clip-path="url(#clip0_105_1151)">
<path d="M25 50C38.8071 50 50 38.8071 50 25C50 11.1929 38.8071 0 25 0C11.1929 0 0 11.1929 0 25C0 38.8071 11.1929 50 25 50Z" fill="#F0F0F0"/>
<path d="M50.0001 25C50.0001 15.0885 44.232 6.52446 35.8696 2.48071V47.5193C44.232 43.4756 50.0001 34.9116 50.0001 25V25Z" fill="#D80027"/>
<path d="M0 25C0 34.9116 5.76807 43.4756 14.1305 47.5194V2.48071C5.76807 6.52446 0 15.0885 0 25Z" fill="#D80027"/>
<path d="M29.3477 28.2609L33.6954 26.087L31.5216 25V22.8261L27.1737 25L29.3477 20.6522H27.1737L24.9998 17.3914L22.8259 20.6522H20.652L22.8259 25L18.478 22.8261V25L16.3042 26.087L20.652 28.2609L19.565 30.4348H23.9129V33.6957H26.0867V30.4348H30.4346L29.3477 28.2609Z" fill="#D80027"/>
</g>
<defs>
<clipPath id="clip0_105_1151">
<rect width="50" height="50" fill="white"/>
</clipPath>
</defs>
</svg>
