<svg width="50" height="50" viewBox="0 0 50 50" fill="none" xmlns="http://www.w3.org/2000/svg">
<g clip-path="url(#clip0_105_1421)">
<path d="M0 25C0 11.193 11.193 0 25 0C38.807 0 50 11.193 50 25L25 27.1739L0 25Z" fill="#FFDA44"/>
<path d="M3.34521 37.5C7.66797 44.9722 15.7465 50 24.9999 50C34.2533 50 42.3318 44.9722 46.6546 37.5L24.9999 35.8695L3.34521 37.5Z" fill="#D80027"/>
<path d="M46.6547 37.5C48.7818 33.8229 50 29.5538 50 25H0C0 29.5538 1.21816 33.8229 3.34531 37.5H46.6547Z" fill="#0052B4"/>
<path d="M24.9998 33.6957C29.8023 33.6957 33.6954 29.8025 33.6954 25C33.6954 20.1976 29.8023 16.3044 24.9998 16.3044C20.1974 16.3044 16.3042 20.1976 16.3042 25C16.3042 29.8025 20.1974 33.6957 24.9998 33.6957Z" fill="#FFDA44"/>
<path d="M25.0002 30.4348C22.0034 30.4348 19.5654 27.9967 19.5654 25V21.7392C19.5654 18.7424 22.0035 16.3044 25.0002 16.3044C27.9969 16.3044 30.435 18.7425 30.435 21.7392V25C30.435 27.9968 27.997 30.4348 25.0002 30.4348Z" fill="#338AF3"/>
<path d="M33.6956 11.9565H27.1738C27.1738 10.7559 26.2005 9.78259 24.9999 9.78259C23.7993 9.78259 22.826 10.7559 22.826 11.9565H16.3042C16.3042 13.1572 17.35 14.1304 18.5505 14.1304H18.4781C18.4781 15.3311 19.4514 16.3044 20.6521 16.3044C20.6521 17.5051 21.6253 18.4783 22.826 18.4783H27.1738C28.3745 18.4783 29.3478 17.5051 29.3478 16.3044C30.5484 16.3044 31.5217 15.3311 31.5217 14.1304H31.4493C32.6499 14.1304 33.6956 13.1571 33.6956 11.9565V11.9565Z" fill="black"/>
</g>
<defs>
<clipPath id="clip0_105_1421">
<rect width="50" height="50" fill="white"/>
</clipPath>
</defs>
</svg>