<svg width="50" height="50" viewBox="0 0 50 50" fill="none" xmlns="http://www.w3.org/2000/svg">
<g clip-path="url(#clip0_105_1515)">
<path d="M25 50C38.8071 50 50 38.8071 50 25C50 11.1929 38.8071 0 25 0C11.1929 0 0 11.1929 0 25C0 38.8071 11.1929 50 25 50Z" fill="#F0F0F0"/>
<path d="M50.0002 25C50.0002 14.2508 43.2158 5.08726 33.6958 1.55493V48.4451C43.2158 44.9126 50.0002 35.7491 50.0002 25V25Z" fill="#D80027"/>
<path d="M0 25C0 35.7491 6.78447 44.9126 16.3044 48.445V1.55493C6.78447 5.08726 0 14.2508 0 25Z" fill="#0052B4"/>
</g>
<defs>
<clipPath id="clip0_105_1515">
<rect width="50" height="50" fill="white"/>
</clipPath>
</defs>
</svg>
