<svg width="50" height="50" viewBox="0 0 50 50" fill="none" xmlns="http://www.w3.org/2000/svg">
<g clip-path="url(#clip0_105_1551)">
<path d="M1.55498 33.6965C5.0873 43.2165 14.2509 50.0009 25 50.0009C35.7491 50.0009 44.9127 43.2165 48.445 33.6965L25 31.5227L1.55498 33.6965Z" fill="#FFDA44"/>
<path d="M25 0.000976562C14.2509 0.000976562 5.0873 6.78535 1.55498 16.3054L25 18.4792L48.445 16.3053C44.9127 6.78535 35.7491 0.000976562 25 0.000976562Z" fill="black"/>
<path d="M1.55498 16.3054C0.550098 19.0137 0 21.943 0 25.001C0 28.059 0.550098 30.9883 1.55498 33.6966H48.4451C49.45 30.9883 50 28.059 50 25.001C50 21.943 49.45 19.0137 48.445 16.3054H1.55498Z" fill="#D80027"/>
</g>
<defs>
<clipPath id="clip0_105_1551">
<rect width="50" height="50" fill="white" transform="translate(0 0.000976562)"/>
</clipPath>
</defs>
</svg>
