<svg width="50" height="50" viewBox="0 0 50 50" fill="none" xmlns="http://www.w3.org/2000/svg">
<g clip-path="url(#clip0_105_1961)">
<path d="M25 50C38.8071 50 50 38.8071 50 25C50 11.1929 38.8071 0 25 0C11.1929 0 0 11.1929 0 25C0 38.8071 11.1929 50 25 50Z" fill="#F0F0F0"/>
<path d="M49.9996 24.9998C49.9996 15.0883 44.2315 6.52422 35.8691 2.48047V47.519C44.2315 43.4754 49.9996 34.9113 49.9996 24.9998V24.9998Z" fill="#D80027"/>
<path d="M0 24.9998C0 34.9113 5.76807 43.4754 14.1305 47.5191V2.48047C5.76807 6.52422 0 15.0883 0 24.9998Z" fill="#6DA544"/>
<path d="M18.4785 24.9996C18.4785 28.6015 21.3984 31.5214 25.0003 31.5214C28.6021 31.5214 31.5221 28.6015 31.5221 24.9996V22.8257H18.4785V24.9996Z" fill="#6DA544"/>
<path d="M33.6961 20.652H27.1743C27.1743 19.4514 26.201 18.478 25.0004 18.478C23.7998 18.478 22.8265 19.4514 22.8265 20.652H16.3047C16.3047 21.8526 17.3505 22.8259 18.551 22.8259H18.4786C18.4786 24.0266 19.4519 24.9998 20.6525 24.9998C20.6525 26.2005 21.6258 27.1737 22.8265 27.1737H27.1743C28.375 27.1737 29.3482 26.2005 29.3482 24.9998C30.5489 24.9998 31.5222 24.0266 31.5222 22.8259H31.4497C32.6504 22.8259 33.6961 21.8526 33.6961 20.652Z" fill="#FF9811"/>
</g>
<defs>
<clipPath id="clip0_105_1961">
<rect width="50" height="50" fill="white"/>
</clipPath>
</defs>
</svg>
