<svg width="51" height="50" viewBox="0 0 51 50" fill="none" xmlns="http://www.w3.org/2000/svg">
<g clip-path="url(#clip0_105_2071)">
<path d="M25.9883 50C39.7954 50 50.9883 38.8071 50.9883 25C50.9883 11.1929 39.7954 0 25.9883 0C12.1812 0 0.988281 11.1929 0.988281 25C0.988281 38.8071 12.1812 50 25.9883 50Z" fill="#F0F0F0"/>
<path d="M25.9882 0C15.2391 0 6.07554 6.78437 2.54321 16.3044H49.4333C45.9009 6.78437 36.7374 0 25.9882 0V0Z" fill="#A2001D"/>
<path d="M25.9882 49.9999C36.7374 49.9999 45.9009 43.2156 49.4333 33.6956H2.54321C6.07554 43.2156 15.2391 49.9999 25.9882 49.9999Z" fill="#0052B4"/>
</g>
<defs>
<clipPath id="clip0_105_2071">
<rect width="50" height="50" fill="white" transform="translate(0.988281)"/>
</clipPath>
</defs>
</svg>