<svg width="50" height="50" viewBox="0 0 50 50" fill="none" xmlns="http://www.w3.org/2000/svg">
<g clip-path="url(#clip0_105_2355)">
<path d="M25 50C38.8071 50 50 38.8071 50 25C50 11.1929 38.8071 0 25 0C11.1929 0 0 11.1929 0 25C0 38.8071 11.1929 50 25 50Z" fill="#6DA544"/>
<path d="M14.1306 29.8914C14.1306 31.6922 15.5906 33.1522 17.3915 33.1522H27.1741C27.1741 34.653 28.3907 35.8696 29.8915 35.8696H33.1523C34.6531 35.8696 35.8697 34.653 35.8697 33.1522V29.8914H14.1306Z" fill="#F0F0F0"/>
<path d="M36.1415 14.1305V21.7392C36.1415 22.9379 35.1663 23.9131 33.9675 23.9131V27.1739C36.9643 27.1739 39.4023 24.7359 39.4023 21.7392V14.1305H36.1415Z" fill="#F0F0F0"/>
<path d="M12.7718 21.7392C12.7718 22.9379 11.7966 23.9131 10.5979 23.9131V27.1739C13.5947 27.1739 16.0327 24.7359 16.0327 21.7392V14.1305H12.7718V21.7392Z" fill="#F0F0F0"/>
<path d="M31.25 14.1305H34.5108V21.7392H31.25V14.1305Z" fill="#F0F0F0"/>
<path d="M26.3587 18.4782C26.3587 18.7779 26.1148 19.0217 25.8152 19.0217C25.5156 19.0217 25.2718 18.7778 25.2718 18.4782V14.1304H22.0109V18.4782C22.0109 18.7779 21.7671 19.0217 21.4675 19.0217C21.1679 19.0217 20.924 18.7778 20.924 18.4782V14.1304H17.6631V18.4782C17.6631 20.576 19.3697 22.2826 21.4675 22.2826C22.2754 22.2826 23.0246 22.0287 23.6414 21.5975C24.2581 22.0286 25.0074 22.2826 25.8153 22.2826C25.978 22.2826 26.138 22.2712 26.2953 22.2512C26.0643 23.2032 25.2068 23.913 24.1849 23.913V27.1738C27.1816 27.1738 29.6196 24.7357 29.6196 21.7391V18.4782V14.1304H26.3588V18.4782H26.3587Z" fill="#F0F0F0"/>
<path d="M17.6631 23.9131H22.5544V27.1739H17.6631V23.9131Z" fill="#F0F0F0"/>
</g>
<defs>
<clipPath id="clip0_105_2355">
<rect width="50" height="50" fill="white"/>
</clipPath>
</defs>
</svg>