<svg width="50" height="50" viewBox="0 0 50 50" fill="none" xmlns="http://www.w3.org/2000/svg">
<g clip-path="url(#clip0_105_2476)">
<path d="M25 49.999C38.8071 49.999 50 38.8061 50 24.999C50 11.1919 38.8071 -0.000976562 25 -0.000976562C11.1929 -0.000976562 0 11.1919 0 24.999C0 38.8061 11.1929 49.999 25 49.999Z" fill="#F0F0F0"/>
<path d="M33.6954 24.9991C33.6954 27.173 29.8022 32.6078 24.9998 32.6078C20.1974 32.6078 16.3042 27.173 16.3042 24.9991C16.3042 20.1965 20.1974 16.3035 24.9998 16.3035C29.8022 16.3035 33.6954 20.1965 33.6954 24.9991Z" fill="#D80027"/>
<path d="M33.6954 24.999C33.6954 29.8016 29.8022 33.6946 24.9998 33.6946C20.1974 33.6946 16.3042 29.8016 16.3042 24.999" fill="#0052B4"/>
<path d="M34.2163 32.6853L36.5217 30.3799L38.0587 31.9169L35.7533 34.2223L34.2163 32.6853Z" fill="black"/>
<path d="M30.3726 36.5278L32.678 34.2224L34.2149 35.7594L31.9095 38.0648L30.3726 36.5278Z" fill="black"/>
<path d="M38.8276 37.2959L41.133 34.9905L42.67 36.5275L40.3646 38.8329L38.8276 37.2959Z" fill="black"/>
<path d="M34.9839 41.1392L37.2893 38.8337L38.8263 40.3707L36.5209 42.6761L34.9839 41.1392Z" fill="black"/>
<path d="M36.522 34.991L38.8274 32.6856L40.3644 34.2225L38.0589 36.5279L36.522 34.991Z" fill="black"/>
<path d="M32.6792 38.8333L34.9846 36.5278L36.5216 38.0648L34.2162 40.3702L32.6792 38.8333Z" fill="black"/>
<path d="M38.8379 17.3169L32.6901 11.1691L34.2271 9.63214L40.3749 15.7799L38.8379 17.3169Z" fill="black"/>
<path d="M32.6885 15.7806L30.3831 13.4752L31.92 11.9383L34.2254 14.2437L32.6885 15.7806Z" fill="black"/>
<path d="M36.5312 19.6239L34.2258 17.3185L35.7627 15.7816L38.0681 18.087L36.5312 19.6239Z" fill="black"/>
<path d="M37.2988 11.1689L34.9934 8.86353L36.5304 7.32657L38.8358 9.63198L37.2988 11.1689Z" fill="black"/>
<path d="M41.1436 15.0127L38.8381 12.7073L40.3751 11.1703L42.6805 13.4757L41.1436 15.0127Z" fill="black"/>
<path d="M8.86279 34.9866L15.0106 41.1344L13.4736 42.6713L7.32583 36.5235L8.86279 34.9866Z" fill="black"/>
<path d="M15.0103 36.5222L17.3157 38.8276L15.7788 40.3645L13.4734 38.0591L15.0103 36.5222Z" fill="black"/>
<path d="M11.1675 32.6807L13.4729 34.9861L11.9359 36.523L9.63052 34.2176L11.1675 32.6807Z" fill="black"/>
<path d="M13.4731 30.3745L19.6209 36.5223L18.084 38.0593L11.9362 31.9115L13.4731 30.3745Z" fill="black"/>
<path d="M15.0098 8.85876L8.86197 15.0066L7.32501 13.4696L13.4728 7.3218L15.0098 8.85876Z" fill="black"/>
<path d="M17.3154 11.1639L11.1676 17.3117L9.63067 15.7748L15.7785 9.62697L17.3154 11.1639Z" fill="black"/>
<path d="M19.623 13.4707L13.4753 19.6185L11.9384 18.0816L18.0861 11.9338L19.623 13.4707Z" fill="black"/>
</g>
<defs>
<clipPath id="clip0_105_2476">
<rect width="50" height="50" fill="white" transform="translate(0 -0.000976562)"/>
</clipPath>
</defs>
</svg>
