<svg width="50" height="51" viewBox="0 0 50 51" fill="none" xmlns="http://www.w3.org/2000/svg">
<g clip-path="url(#clip0_105_2782)">
<path d="M25 50.5811C38.8071 50.5811 50 39.3882 50 25.5811C50 11.7739 38.8071 0.581055 25 0.581055C11.1929 0.581055 0 11.7739 0 25.5811C0 39.3882 11.1929 50.5811 25 50.5811Z" fill="#F0F0F0"/>
<path d="M25 19.0594H49.1388C48.5119 16.7338 47.5592 14.5423 46.3307 12.5376H25V19.0594Z" fill="#338AF3"/>
<path d="M9.43777 45.1463H40.5621C42.8436 43.3291 44.8003 41.1219 46.3305 38.6245H3.66931C5.19968 41.1218 7.15632 43.3291 9.43777 45.1463V45.1463Z" fill="#338AF3"/>
<path d="M25 0.581055V6.01582H40.5622C36.2917 2.61465 30.8837 0.581055 25 0.581055V0.581055Z" fill="#338AF3"/>
<path d="M25 19.0594H49.1388C48.5119 16.7338 47.5592 14.5423 46.3307 12.5376H25V19.0594Z" fill="#338AF3"/>
<path d="M0 25.5811C0 27.8376 0.300781 30.0233 0.86123 32.1028H49.1389C49.6992 30.0233 50 27.8376 50 25.5811H0Z" fill="#338AF3"/>
<path d="M21.7391 15.212L18.6858 16.6482L20.3117 19.6053L16.9963 18.9711L16.5761 22.3202L14.267 19.8569L11.9576 22.3202L11.5376 18.9711L8.22214 19.6051L9.84792 16.6481L6.7948 15.212L9.84802 13.776L8.22214 10.8189L11.5375 11.4531L11.9577 8.104L14.267 10.5673L16.5762 8.104L16.9963 11.4531L20.3118 10.8189L18.6859 13.7761L21.7391 15.212Z" fill="#FFDA44"/>
</g>
<defs>
<clipPath id="clip0_105_2782">
<rect width="50" height="50" fill="white" transform="translate(0 0.581055)"/>
</clipPath>
</defs>
</svg>
