<svg width="50" height="50" viewBox="0 0 50 50" fill="none" xmlns="http://www.w3.org/2000/svg">
<g clip-path="url(#clip0_105_2774)">
<path d="M25 49.999C38.8071 49.999 50 38.8061 50 24.999C50 11.1919 38.8071 -0.000976562 25 -0.000976562C11.1929 -0.000976562 0 11.1919 0 24.999C0 38.8061 11.1929 49.999 25 49.999Z" fill="#F0F0F0"/>
<path d="M23.9131 24.9988H50C50 22.7424 49.6992 20.5564 49.1388 18.4771H23.9131V24.9988Z" fill="#D80027"/>
<path d="M23.9131 11.9554H46.3307C44.8003 9.45811 42.8436 7.25078 40.5621 5.43359H23.9131V11.9554Z" fill="#D80027"/>
<path d="M25 49.9987C30.8837 49.9987 36.2916 47.9651 40.5621 44.564H9.43787C13.7084 47.9651 19.1163 49.9987 25 49.9987Z" fill="#D80027"/>
<path d="M3.66931 38.0423H46.3306C47.5593 36.0375 48.5121 33.8461 49.1387 31.5205H0.861206C1.48787 33.8461 2.4407 36.0375 3.66931 38.0423V38.0423Z" fill="#D80027"/>
<path d="M11.5805 3.90313H13.8587L11.7396 5.44268L12.549 7.93379L10.43 6.39424L8.31094 7.93379L9.01016 5.78174C7.14434 7.33594 5.50898 9.15684 4.16133 11.1857H4.89131L3.54238 12.1657C3.33223 12.5163 3.13066 12.8725 2.9375 13.2339L3.58164 15.2164L2.37988 14.3433C2.08115 14.9762 1.80791 15.6233 1.5623 16.284L2.27197 18.4684H4.89131L2.77217 20.0079L3.58164 22.499L1.4626 20.9595L0.193262 21.8817C0.0662109 22.903 0 23.9433 0 24.999H25C25 11.192 25 9.56426 25 -0.000976562C20.0613 -0.000976562 15.4575 1.43164 11.5805 3.90313V3.90313ZM12.549 22.499L10.43 20.9595L8.31094 22.499L9.12041 20.0079L7.00127 18.4684H9.62061L10.43 15.9772L11.2394 18.4684H13.8587L11.7396 20.0079L12.549 22.499ZM11.7396 12.7253L12.549 15.2164L10.43 13.6769L8.31094 15.2164L9.12041 12.7253L7.00127 11.1857H9.62061L10.43 8.69463L11.2394 11.1857H13.8587L11.7396 12.7253ZM21.5164 22.499L19.3974 20.9595L17.2783 22.499L18.0878 20.0079L15.9687 18.4684H18.588L19.3974 15.9772L20.2067 18.4684H22.8261L20.7069 20.0079L21.5164 22.499ZM20.7069 12.7253L21.5164 15.2164L19.3974 13.6769L17.2783 15.2164L18.0878 12.7253L15.9687 11.1857H18.588L19.3974 8.69463L20.2067 11.1857H22.8261L20.7069 12.7253ZM20.7069 5.44268L21.5164 7.93379L19.3974 6.39424L17.2783 7.93379L18.0878 5.44268L15.9687 3.90313H18.588L19.3974 1.41201L20.2067 3.90313H22.8261L20.7069 5.44268Z" fill="#0052B4"/>
</g>
<defs>
<clipPath id="clip0_105_2774">
<rect width="50" height="50" fill="white" transform="translate(0 -0.000976562)"/>
</clipPath>
</defs>
</svg>