<svg width="50" height="50" viewBox="0 0 50 50" fill="none" xmlns="http://www.w3.org/2000/svg">
<g clip-path="url(#clip0_105_2873)">
<path d="M25 50C38.8071 50 50 38.8071 50 25C50 11.1929 38.8071 0 25 0C11.1929 0 0 11.1929 0 25C0 38.8071 11.1929 50 25 50Z" fill="#F0F0F0"/>
<path d="M50 25C50 38.807 38.807 50 25 50C11.193 50 0 38.807 0 25" fill="#496E2D"/>
<path d="M43.2628 17.3967C42.3688 14.8612 39.953 13.0435 37.1117 13.0435H31.5215C27.9196 13.0435 24.9997 15.9634 24.9997 19.5652C24.9997 20.742 25.313 21.873 25.8582 22.8261C23.7823 22.8091 21.8611 22.8404 20.6519 22.8261C20.6519 20.3108 20.6519 17.1067 20.6519 16.4363L20.9087 16.1795C22.0616 15.0266 21.6771 13.1051 21.6771 13.1051C21.6771 13.1051 19.7559 12.7208 18.6029 13.8737L17.2593 15.2174H15.7605C12.4588 15.2174 9.78232 17.8939 9.78232 21.1956H14.1302V26.0869C14.1302 26.8023 14.2744 27.4839 14.5351 28.1046L13.0432 29.3478H10.8692V27.1738H8.69531V31.5217H18.4779V35.8695H16.304V38.0435H20.6519V33.6956L22.6445 31.3043H27.3548L29.3475 33.6956V35.8695H27.1735V38.0435H35.8691V26.0868C35.8691 24.2859 37.3291 22.826 39.13 22.826C39.1763 22.826 39.2222 22.8276 39.2681 22.8295C39.178 22.4811 39.13 22.1157 39.13 21.7391C39.1302 19.4101 40.9615 17.5089 43.2628 17.3967V17.3967ZM31.5215 35.8694V31.3042H31.7026L33.6953 33.6955V35.8694H31.5215Z" fill="#D80027"/>
</g>
<defs>
<clipPath id="clip0_105_2873">
<rect width="50" height="50" fill="white"/>
</clipPath>
</defs>
</svg>