<?xml version="1.0" standalone="no"?>
<!DOCTYPE svg PUBLIC "-//W3C//DTD SVG 20010904//EN"
 "http://www.w3.org/TR/2001/REC-SVG-20010904/DTD/svg10.dtd">
<svg version="1.0" xmlns="http://www.w3.org/2000/svg"
 width="140pt" height="78pt" viewBox="0 0 1400.000000 788.000000"
 preserveAspectRatio="xMidYMid meet">

<g transform="translate(0.000000,788.000000) scale(0.100000,-0.100000)"
fill="#980C33" stroke="none">
<path d="M0 3940 l0 -3940 7000 0 7000 0 0 3940 0 3940 -7000 0 -7000 0 0
-3940z m7132 2881 c91 -39 323 -113 372 -118 73 -8 100 -25 144 -91 70 -103
181 -317 211 -408 102 -304 45 -647 -180 -1089 -53 -105 -157 -301 -231 -435
-74 -135 -150 -273 -169 -308 l-34 -64 58 -109 c49 -94 54 -107 33 -94 -36 24
-66 11 -66 -26 0 -24 16 -47 75 -109 41 -43 75 -86 75 -94 0 -8 5 -18 10 -21
6 -4 10 11 10 36 0 39 -5 47 -55 94 -58 53 -74 95 -35 95 16 0 39 -40 116
-196 89 -181 95 -196 80 -213 -22 -24 -20 -29 8 -24 17 4 25 0 29 -16 4 -16
-1 -21 -24 -26 -27 -6 -42 -25 -20 -25 5 0 13 -9 16 -21 5 -16 9 -18 21 -8 17
14 28 5 39 -30 6 -18 4 -23 -6 -18 -58 23 -55 23 -37 -3 9 -15 24 -24 36 -23
16 2 20 -6 26 -50 10 -87 6 -218 -8 -287 -39 -181 -99 -260 -243 -319 -63 -25
-91 -32 -117 -27 -31 6 -65 -2 -128 -29 -31 -13 -19 13 16 34 26 16 50 21 108
21 62 0 78 3 93 20 10 11 15 20 11 20 -4 0 2 12 14 27 12 16 17 29 11 31 -6 2
-8 15 -5 30 3 16 2 22 -3 15 -5 -6 -24 -11 -42 -11 -36 1 -61 -21 -61 -54 0
-23 28 -35 43 -18 9 10 9 11 0 6 -9 -5 -13 0 -13 13 0 26 34 46 48 28 14 -17
-2 -53 -33 -73 -18 -12 -38 -15 -69 -12 -52 6 -91 -9 -131 -50 -41 -43 -52
-40 -18 5 l28 36 -30 -7 c-17 -4 -41 -18 -56 -32 -24 -23 -49 -32 -49 -17 0 3
19 24 42 45 28 26 49 37 61 34 36 -9 67 12 88 61 22 52 35 64 56 56 11 -4 14
1 11 18 -5 39 -38 30 -71 -19 -33 -48 -47 -50 -22 -3 20 39 11 40 -22 1 -36
-43 -42 -29 -8 20 23 33 25 42 15 55 -14 17 -29 19 -50 5 -13 -8 -12 -11 4
-23 19 -14 18 -16 -25 -55 -41 -39 -43 -43 -33 -71 11 -27 9 -32 -30 -70 -23
-23 -45 -41 -48 -41 -3 0 -22 16 -41 35 -40 40 -93 50 -82 16 5 -16 -2 -19
-45 -24 -62 -7 -146 13 -216 53 -221 127 -272 427 -150 870 36 129 117 355
180 497 20 45 36 84 36 88 0 4 -54 101 -119 215 -275 478 -427 811 -493 1080
-17 69 -21 116 -21 245 0 141 3 172 26 259 32 121 98 258 166 348 51 67 132
138 157 138 8 0 35 27 60 59 53 68 89 89 183 104 36 6 131 23 211 38 177 33
253 36 312 10z m-666 -2276 c28 -49 26 -69 -5 -41 -18 16 -21 15 -69 -13 -32
-18 -54 -26 -58 -20 -7 12 -10 9 49 44 41 24 48 31 43 51 -10 39 11 27 40 -21z
m58 -102 c4 -9 -1 -25 -12 -37 -52 -60 -52 -60 4 -52 40 5 54 3 64 -9 7 -9 11
-17 9 -18 -32 -24 -129 -74 -133 -69 -12 11 -5 19 36 42 48 27 40 35 -21 21
-64 -14 -65 2 -2 72 31 34 26 34 -33 1 -36 -20 -46 -22 -46 -11 0 14 93 75
116 76 7 1 15 -6 18 -16z m405 -1639 c14 -12 -19 -1 -35 12 -18 14 -18 14 6 3
14 -6 27 -13 29 -15z m-2033 -539 c-19 -76 -18 -75 -106 -75 l-80 0 0 -40 0
-40 66 0 c63 0 65 -1 58 -22 -20 -65 -33 -78 -79 -78 l-45 0 0 -75 0 -75 -65
0 -65 0 0 215 0 215 161 0 161 0 -6 -25z m179 -190 l0 -210 -65 0 -65 0 -3
200 c-1 110 0 205 3 213 3 9 22 12 67 10 l63 -3 0 -210z m408 208 c3 -5 -4
-27 -14 -50 l-18 -43 -76 0 -75 0 0 -40 0 -40 60 0 c33 0 60 -3 60 -7 0 -4 -7
-27 -16 -50 -16 -41 -18 -43 -60 -43 l-43 0 -3 -72 -3 -73 -65 0 -65 0 -3 200
c-1 110 0 205 2 212 4 10 44 13 160 13 85 0 157 -3 159 -7z m227 4 c0 -1 34
-95 75 -207 41 -112 75 -208 75 -212 0 -4 -29 -8 -66 -8 -63 0 -65 1 -75 30
-11 29 -12 30 -80 30 -69 0 -70 -1 -80 -30 -11 -29 -13 -30 -75 -30 -35 0 -64
2 -64 4 0 12 144 403 153 414 8 10 137 19 137 9z m344 -14 c2 -10 15 -81 28
-158 25 -157 19 -163 61 55 l22 115 69 0 c81 0 70 20 107 -185 12 -69 24 -120
25 -115 2 6 13 64 24 130 33 194 24 175 80 175 27 0 51 -4 54 -8 5 -8 -80
-397 -90 -414 -3 -4 -36 -8 -74 -8 l-68 0 -10 48 c-6 26 -18 93 -28 150 -17
95 -34 134 -34 78 0 -31 -38 -255 -46 -267 -3 -5 -36 -9 -74 -9 -57 0 -70 3
-74 18 -10 36 -86 386 -86 399 0 9 16 13 54 13 43 0 56 -4 60 -17z m789 1 c73
-37 117 -112 117 -199 0 -99 -67 -196 -147 -211 -135 -26 -236 22 -268 129
-36 122 2 229 100 280 41 22 156 22 198 1z m403 5 c58 -15 84 -48 84 -106 0
-36 -6 -50 -30 -75 -21 -21 -28 -34 -21 -42 11 -13 71 -171 71 -187 0 -14
-110 -11 -115 4 -47 135 -61 157 -101 157 -24 0 -24 -2 -24 -85 l0 -85 -55 0
-55 0 0 215 0 215 101 0 c55 0 120 -5 145 -11z m264 -159 l0 -170 91 0 90 0
-3 -42 -3 -43 -142 -3 -143 -3 0 216 0 215 55 0 55 0 0 -170z m447 159 c109
-19 159 -71 170 -173 12 -112 -41 -200 -135 -227 -27 -8 -93 -14 -155 -14
l-108 0 -2 208 c-1 115 0 211 2 213 9 8 167 4 228 -7z m653 2 c22 -6 25 -13
24 -49 0 -23 -3 -44 -5 -47 -3 -2 -25 3 -49 11 -119 41 -220 -54 -179 -170 20
-55 58 -81 122 -81 29 0 67 4 85 8 l32 9 0 -45 c0 -43 -2 -46 -32 -53 -52 -12
-161 -7 -199 9 -46 19 -96 62 -116 101 -22 42 -23 160 -1 201 23 44 70 85 114
100 41 15 161 18 204 6z m180 -147 c6 -168 15 -194 70 -194 55 0 64 26 70 194
l5 151 53 3 52 3 0 -164 c0 -154 -1 -166 -23 -198 -32 -48 -88 -73 -162 -72
-91 1 -155 42 -175 114 -11 39 -14 302 -3 313 4 4 30 6 58 4 l50 -3 5 -151z
m564 131 c44 -21 66 -59 66 -115 0 -86 -62 -139 -162 -140 l-48 0 0 -75 0 -75
-55 0 -55 0 0 216 0 217 108 -5 c74 -4 120 -11 146 -23z m-4164 -552 c107 -44
159 -174 111 -278 -22 -47 -71 -95 -124 -122 l-38 -19 98 -52 c123 -64 144
-85 151 -153 4 -41 2 -50 -9 -47 -8 1 -107 52 -221 111 -280 148 -338 206
-338 342 0 119 69 205 187 235 47 11 136 3 183 -17z m817 -55 l-2 -63 74 -3
73 -3 -7 -37 c-4 -20 -9 -40 -11 -44 -3 -5 -34 -8 -70 -8 l-64 0 0 -82 c0
-124 -13 -118 267 -118 l233 0 0 63 c0 89 16 136 61 179 48 46 110 61 234 56
l90 -3 3 -197 2 -198 -60 0 -60 0 0 83 -1 82 -24 -45 c-13 -25 -40 -61 -60
-80 l-36 -35 -339 0 c-328 0 -339 1 -367 21 -44 32 -57 70 -61 177 l-4 97 -35
0 c-34 0 -34 0 -31 43 3 39 5 42 36 45 28 3 32 7 32 32 0 21 9 36 33 54 29 23
71 44 89 45 3 1 6 -27 5 -61z m1589 24 c49 -25 74 -71 74 -137 0 -93 -70 -165
-213 -220 l-62 -24 148 -1 c163 0 160 1 136 -69 l-11 -31 -189 0 c-173 0 -189
1 -189 18 0 9 -3 27 -6 38 -5 19 7 29 82 75 48 29 110 74 136 99 44 42 48 50
48 93 0 66 -25 87 -104 87 -34 -1 -78 -7 -98 -14 -21 -7 -39 -11 -42 -9 -7 7
15 66 32 85 35 41 186 47 258 10z m490 7 c53 -23 84 -50 111 -97 23 -38 27
-57 26 -111 -1 -82 -21 -129 -81 -193 -111 -119 -210 -122 -323 -9 -181 181
-71 446 177 427 33 -3 74 -11 90 -17z m466 -6 c97 -57 105 -186 17 -270 -30
-28 -166 -100 -201 -105 -7 -1 52 -5 132 -8 l145 -5 -2 -25 c-8 -75 8 -70
-202 -70 -187 0 -189 0 -195 23 -12 45 -5 54 101 123 118 77 163 127 163 181
0 54 -36 83 -103 83 -30 0 -75 -6 -101 -14 -46 -14 -47 -14 -41 7 21 74 27 80
110 101 41 10 144 -2 177 -21z m442 -1 c17 -10 41 -34 54 -53 20 -28 23 -44
20 -90 -7 -91 -57 -144 -195 -205 l-78 -34 142 0 c78 0 144 -4 147 -8 3 -5 0
-27 -6 -50 l-10 -42 -188 0 c-203 0 -200 -1 -200 56 0 19 11 31 46 52 97 57
186 124 204 155 29 47 26 101 -6 126 -32 25 -107 28 -177 7 -52 -16 -54 -13
-31 43 16 39 26 46 99 65 39 10 147 -3 179 -22z m-3236 -284 l2 -198 -55 0
-55 0 0 88 0 87 -31 -55 c-77 -135 -159 -164 -223 -77 -30 41 -30 194 0 251
42 81 106 106 254 103 l105 -2 3 -197z m1496 171 c3 -17 6 -44 6 -60 0 -25 -4
-29 -29 -29 -64 0 -117 -83 -129 -203 l-7 -72 -57 -3 -58 -3 0 158 c0 87 -3
175 -6 196 l-7 37 62 0 61 0 2 -47 c1 -27 1 -58 0 -70 -1 -33 5 -28 26 20 21
47 83 107 111 107 13 0 20 -10 25 -31z"/>
<path d="M6353 6373 c-21 -14 -22 -17 -7 -44 14 -29 15 -29 44 -14 30 15 30
16 15 45 -18 34 -21 35 -52 13z"/>
<path d="M6690 6274 c-79 -21 -93 -34 -122 -110 -43 -112 -52 -154 -52 -259 0
-183 53 -394 149 -590 63 -129 236 -438 259 -463 10 -10 25 17 76 130 182 412
271 757 242 943 -21 133 -99 253 -200 308 -101 55 -239 71 -352 41z"/>
<path d="M6251 6218 c-56 -29 -82 -64 -88 -119 -16 -164 212 -223 279 -72 33
74 10 146 -58 185 -52 29 -85 30 -133 6z m109 -38 c13 -9 13 -11 0 -20 -21
-14 -24 -13 -45 10 -18 19 -17 20 6 20 13 0 31 -5 39 -10z m-110 -45 c-13 -15
-40 -21 -40 -8 0 4 10 18 23 31 18 20 23 21 25 7 2 -9 -2 -22 -8 -30z m81 -15
c12 -7 19 -21 19 -39 0 -23 -6 -30 -27 -36 -20 -5 -31 -2 -40 11 -16 22 -16
30 -3 55 12 22 23 24 51 9z m84 -20 c8 -13 -3 -50 -15 -50 -12 0 -20 28 -14
45 7 17 20 20 29 5z m-167 -75 c4 -30 4 -30 -17 -11 -26 23 -28 49 -3 44 10
-2 18 -14 20 -33z m110 -27 c-5 -15 -58 -24 -58 -10 0 15 12 22 38 22 14 0 22
-5 20 -12z"/>
<path d="M6265 5840 c-18 -20 -18 -21 3 -42 l22 -22 24 23 25 24 -23 18 c-30
23 -29 23 -51 -1z"/>
<path d="M6940 4339 c0 -9 6 -22 14 -29 8 -6 16 -21 18 -32 4 -28 33 -47 49
-31 14 14 2 55 -15 51 -7 -2 -24 11 -39 27 -19 22 -26 25 -27 14z"/>
<path d="M7086 4302 c-3 -5 1 -18 9 -28 14 -18 14 -18 15 3 0 23 -15 39 -24
25z"/>
<path d="M7175 4270 c-4 -6 -11 -8 -16 -5 -18 12 -8 -20 26 -82 19 -35 35 -73
35 -83 0 -11 5 -20 10 -20 20 0 9 47 -21 88 -34 46 -35 75 -3 80 24 3 49 -22
39 -38 -5 -8 -14 -6 -27 7 -15 13 -20 14 -16 4 7 -24 36 -37 49 -24 12 12 10
19 -14 58 -13 22 -52 31 -62 15z"/>
<path d="M7060 4251 c0 -4 18 -21 41 -35 22 -15 39 -30 36 -33 -3 -2 -19 5
-36 18 -39 29 -51 18 -23 -21 35 -46 26 -48 -14 -2 -20 23 -40 39 -45 36 -17
-10 132 -145 155 -142 49 7 16 87 -63 155 -40 34 -51 39 -51 24z"/>
<path d="M6986 4172 c-3 -3 -6 -9 -6 -14 0 -11 37 -10 44 1 6 10 -30 22 -38
13z"/>
<path d="M7005 4113 c-17 -40 15 -92 58 -93 20 0 23 30 5 48 -20 20 -32 13
-14 -7 13 -14 14 -21 5 -27 -14 -9 -41 24 -37 46 6 27 39 22 83 -14 41 -34 85
-48 85 -26 0 6 -8 10 -17 10 -10 0 -45 18 -78 40 -67 45 -79 48 -90 23z"/>
<path d="M7260 4008 c0 -2 19 -41 43 -88 25 -50 52 -89 64 -95 34 -15 123
-215 123 -275 0 -15 9 -38 20 -51 l19 -24 1 41 c0 23 -6 47 -14 53 -7 6 -24
39 -36 74 -12 34 -36 89 -53 122 -17 33 -32 72 -33 87 -2 32 -48 94 -99 132
-19 15 -35 26 -35 24z"/>
<path d="M7178 3989 c-12 -6 -18 -22 -18 -43 0 -41 9 -51 26 -28 16 21 44 8
59 -28 39 -92 49 -105 85 -108 l35 -4 -23 25 c-13 14 -36 52 -52 86 -28 58
-70 111 -87 111 -4 0 -16 -5 -25 -11z"/>
<path d="M7013 3837 c5 -31 3 -38 -8 -33 -23 8 -18 -28 5 -49 15 -14 17 -21 8
-26 -9 -6 -8 -11 2 -24 11 -14 24 -16 65 -11 156 20 162 20 190 -8 23 -23 26
-34 23 -77 -2 -41 -1 -47 10 -32 16 22 15 46 -2 87 -22 53 -49 66 -139 66 -69
0 -81 3 -102 25 -28 27 -30 37 -15 66 13 24 56 25 69 1 11 -21 -2 -48 -18 -38
-6 4 -11 2 -11 -4 0 -17 29 -23 45 -10 22 18 18 45 -9 77 -23 26 -26 27 -57
16 -26 -10 -36 -10 -47 0 -13 10 -14 7 -9 -26z"/>
<path d="M7160 3841 c6 -13 9 -37 6 -53 -5 -26 -4 -29 9 -18 22 18 18 54 -6
76 -22 19 -22 19 -9 -5z"/>
<path d="M7459 3815 c-2 -49 1 -68 18 -107 19 -46 27 -47 43 -9 10 24 9 35 -8
67 -11 22 -27 48 -36 59 -15 19 -15 19 -17 -10z"/>
<path d="M7354 3733 c13 -50 41 -98 60 -101 61 -12 19 98 -48 122 -16 5 -17 3
-12 -21z"/>
<path d="M7114 3645 c-27 -26 -32 -35 -19 -35 11 0 15 -5 12 -14 -4 -10 8 -7
40 10 28 15 63 24 89 24 51 0 56 13 14 35 -50 26 -94 20 -136 -20z"/>
<path d="M7384 3584 c-43 -21 -74 -55 -80 -90 -3 -16 -2 -25 2 -21 4 4 13 2
21 -4 10 -9 13 -8 13 5 0 10 23 42 51 72 52 55 50 66 -7 38z"/>
<path d="M7448 3543 c-26 -30 -40 -64 -34 -80 5 -12 9 -13 21 -3 8 7 15 19 15
26 0 8 6 14 14 14 8 0 13 11 12 30 -1 34 -7 37 -28 13z"/>
<path d="M7468 3449 c-17 -28 -17 -30 -1 -27 9 2 20 15 24 31 10 36 -2 34 -23
-4z"/>
<path d="M7560 3462 c0 -12 7 -25 15 -29 27 -10 30 6 7 30 l-22 21 0 -22z"/>
<path d="M7510 3451 c0 -10 -3 -27 -6 -35 -5 -12 -2 -15 10 -10 18 7 22 49 6
59 -5 3 -10 -3 -10 -14z"/>
<path d="M7550 3411 c0 -12 5 -21 10 -21 6 0 10 6 10 14 0 8 -4 18 -10 21 -5
3 -10 -3 -10 -14z"/>
<path d="M7247 3293 c-4 -3 -7 -19 -7 -35 0 -15 -4 -28 -10 -28 -5 0 -10 -8
-10 -17 0 -10 -7 -26 -14 -36 -14 -18 -14 -17 -21 2 -3 12 -10 21 -15 21 -5 0
-14 2 -22 5 -7 3 -19 -4 -25 -14 -11 -18 -10 -19 15 -18 26 2 27 1 24 -49 -3
-56 7 -71 48 -74 43 -4 47 -1 64 45 13 32 23 45 37 45 14 0 19 -7 19 -25 0
-28 -17 -34 -22 -7 -3 15 -4 15 -10 1 -8 -21 6 -44 21 -34 17 10 32 52 25 69
-8 21 -34 28 -51 15 -20 -17 -24 -8 -30 68 -5 73 -6 77 -16 66z"/>
<path d="M7112 3140 c2 -14 9 -25 18 -25 9 0 16 10 17 25 2 21 2 22 -6 5 -8
-19 -8 -19 -20 0 -11 19 -11 18 -9 -5z"/>
<path d="M6937 3121 c-15 -16 -27 -34 -27 -41 0 -6 16 -32 35 -57 52 -69 44
-114 -25 -142 -24 -9 -24 -10 -3 -10 31 -1 83 46 83 75 0 13 -12 46 -27 74
-22 39 -26 53 -17 67 14 22 54 29 65 12 11 -19 -10 -41 -34 -33 -14 4 -18 2
-15 -7 6 -19 45 -24 64 -9 20 17 18 36 -6 60 -12 12 -18 25 -15 30 9 14 -9 12
-23 -2 -10 -10 -14 -10 -20 -1 -6 9 -16 4 -35 -16z"/>
<path d="M6871 3021 c-8 -5 -4 -14 10 -27 12 -10 29 -35 37 -54 l15 -35 10 32
c7 25 6 38 -6 56 -17 26 -48 39 -66 28z"/>
<path d="M6977 2882 c-28 -30 -34 -47 -17 -57 14 -9 60 40 60 65 0 27 -11 25
-43 -8z"/>
<path d="M5615 2093 c-10 -38 -20 -74 -23 -80 -3 -9 10 -13 48 -13 37 0 50 3
47 13 -3 6 -13 42 -23 80 -10 37 -21 67 -25 67 -3 0 -14 -30 -24 -67z"/>
<path d="M6698 2191 c-73 -58 -57 -216 25 -245 76 -27 141 86 108 187 -23 67
-85 95 -133 58z"/>
<path d="M7110 2155 c0 -42 2 -45 28 -45 48 0 72 12 78 36 9 36 -12 54 -62 54
l-44 0 0 -45z"/>
<path d="M7840 2074 l0 -126 56 4 c73 6 105 36 111 105 3 26 0 60 -6 75 -14
38 -67 68 -118 68 l-43 0 0 -126z"/>
<path d="M9210 2144 l0 -57 37 6 c86 14 83 107 -3 107 l-34 0 0 -56z"/>
<path d="M5020 1633 c-31 -11 -70 -58 -76 -90 -14 -75 24 -146 108 -199 50
-32 61 -30 93 12 93 122 48 286 -77 283 -18 0 -40 -3 -48 -6z"/>
<path d="M6636 1494 c-19 -18 -22 -126 -6 -169 22 -59 84 -5 115 100 8 30 18
61 21 70 9 22 -108 22 -130 -1z"/>
<path d="M7908 1594 c-88 -47 -74 -246 21 -327 39 -32 60 -34 95 -6 36 29 66
89 77 160 19 116 -28 189 -119 189 -26 -1 -59 -7 -74 -16z m107 -114 l29 -30
-32 -32 -32 -32 -30 29 c-37 35 -37 48 -4 74 34 27 35 27 69 -9z"/>
<path d="M5507 1492 c-20 -21 -23 -97 -6 -154 12 -44 37 -50 68 -17 19 20 54
105 67 162 l6 27 -59 0 c-45 0 -64 -4 -76 -18z"/>
</g>
</svg>
